Hanif_Medium_7_5_grf.mot
version=1
nRows=21
nColumns=19
inDegrees=yes
endheader
time	right_ground_force_vx	right_ground_force_vy	right_ground_force_vz	right_ground_force_px	right_ground_force_py	right_ground_force_pz	right_ground_torque_x	right_ground_torque_y	right_ground_torque_z	left_ground_force_vx	left_ground_force_vy	left_ground_force_vz	left_ground_force_px	left_ground_force_py	left_ground_force_pz	left_ground_torque_x	left_ground_torque_y	left_ground_torque_z
6.350000	-0.653940	333.128000	28.047500	0.187680	0.000000	-1.445220	-20.252400	3.025550	-3.875030	-0.248677	307.183000	-27.462100	0.215532	0.000000	-0.978261	23.123200	-5.086980	5.265730
6.355000	-0.784654	331.538000	27.710000	0.187612	0.000000	-1.445670	-20.007500	2.930180	-3.887090	-0.001681	308.472000	-27.514900	0.215321	0.000000	-0.978638	23.332200	-5.094870	5.218130
6.360000	-0.680403	331.523000	27.215600	0.187512	0.000000	-1.445340	-20.115600	2.942740	-3.922850	-0.177912	308.472000	-27.968200	0.215960	0.000000	-0.979139	23.490000	-5.017940	5.419770
6.365000	0.257226	333.326000	27.146000	0.187201	0.000000	-1.445610	-20.127300	3.072320	-4.045610	-0.164003	310.591000	-28.363300	0.215675	0.000000	-0.979229	23.679000	-5.029720	5.369580
6.370000	0.493636	332.299000	26.990300	0.187197	0.000000	-1.445290	-20.169700	3.084770	-4.034260	-0.126544	312.854000	-28.583300	0.216189	0.000000	-0.978253	23.545400	-4.964000	5.561510
6.375000	0.814945	333.669000	26.434500	0.187452	0.000000	-1.444870	-20.389400	3.025410	-3.977500	-0.118414	311.055000	-28.515100	0.215962	0.000000	-0.979140	23.685700	-4.912180	5.458070
6.380000	0.747857	333.909000	26.452800	0.187591	0.000000	-1.445250	-20.279600	3.028510	-3.933070	-0.070227	310.022000	-28.720500	0.216373	0.000000	-0.978831	23.510400	-4.930360	5.576810
6.385000	0.570847	333.653000	26.369000	0.187081	0.000000	-1.444910	-20.379900	3.060260	-4.098420	-0.006581	309.070000	-27.889500	0.216922	0.000000	-0.979583	23.669500	-4.896750	5.714700
6.390000	0.839727	333.966000	26.056300	0.187368	0.000000	-1.445280	-20.272900	2.972190	-4.016270	-0.401757	307.409000	-27.405800	0.216949	0.000000	-0.979924	23.654300	-4.884910	5.689960
6.395000	0.680504	331.227000	25.989400	0.187226	0.000000	-1.445330	-20.088600	2.932850	-4.030260	-0.825463	307.090000	-26.285100	0.217624	0.000000	-0.980630	23.853600	-4.808590	5.868960
6.400000	-0.157111	330.655000	25.666000	0.187252	0.000000	-1.444890	-20.208500	2.860980	-4.017850	-1.377660	307.145000	-25.472700	0.217448	0.000000	-0.979976	23.666800	-4.767310	5.799960
6.405000	-0.330255	330.436000	25.408200	0.186880	0.000000	-1.445040	-20.146400	2.760020	-4.147110	-1.364970	306.342000	-25.036500	0.217520	0.000000	-0.980650	23.810800	-4.703060	5.796140
6.410000	-0.265100	327.461000	24.785500	0.186897	0.000000	-1.445640	-19.766100	2.728830	-4.107660	-1.500280	305.648000	-24.302800	0.217402	0.000000	-0.980713	23.778600	-4.736500	5.738390
6.415000	0.261665	327.304000	24.658100	0.186676	0.000000	-1.445220	-19.890500	2.708600	-4.182800	-1.225350	306.976000	-24.979300	0.217442	0.000000	-0.980872	23.925700	-4.646080	5.775580
6.420000	0.045263	325.071000	24.633600	0.186542	0.000000	-1.445150	-19.778900	2.718420	-4.194030	-1.168520	306.585000	-25.690100	0.217316	0.000000	-0.980299	23.718400	-4.628020	5.741580
6.425000	0.004086	325.435000	24.642000	0.186615	0.000000	-1.445490	-19.693400	2.644800	-4.180580	-1.470300	303.812000	-25.661800	0.217383	0.000000	-0.980278	23.502600	-4.542590	5.712230
6.430000	0.524163	323.231000	25.032400	0.185987	0.000000	-1.445340	-19.604300	2.560070	-4.360900	-0.953079	304.395000	-26.181900	0.217363	0.000000	-0.980227	23.523100	-4.464830	5.714780
6.435000	0.736102	323.982000	25.118700	0.186052	0.000000	-1.445540	-19.584300	2.525350	-4.353740	-0.945305	303.636000	-25.799300	0.217190	0.000000	-0.980556	23.564300	-4.466820	5.643060
6.440000	0.993852	323.033000	24.985000	0.186829	0.000000	-1.446190	-19.312900	2.520130	-4.089860	-1.361410	304.410000	-25.635400	0.217277	0.000000	-0.980888	23.731800	-4.325960	5.669860
6.445000	1.308210	323.805000	25.648900	0.186427	0.000000	-1.446240	-19.343300	2.543970	-4.227420	-2.212100	302.946000	-24.897000	0.218032	0.000000	-0.981043	23.679000	-4.324640	5.869100
6.450000	1.131310	324.590000	25.576800	0.186363	0.000000	-1.445930	-19.489900	2.618720	-4.252870	-2.183130	304.239000	-25.382100	0.218364	0.000000	-0.980601	23.643900	-4.218430	5.991930
